<svg id="Groupe_4" data-name="Groupe 4" xmlns="http://www.w3.org/2000/svg" width="91.656" height="91.628" viewBox="0 0 91.656 91.628">
  <path id="Tracé_1" data-name="Tracé 1" d="M2510.348,1016.7a36.894,36.894,0,1,0,36.986-36.783,36.81,36.81,0,0,0-36.986,36.783m-8.92.282a45.829,45.829,0,0,1,91.656-.537c.051,25.379-20.283,46.136-45.242,46.179-25.887.047-46.358-20.085-46.415-45.642" transform="translate(-2501.428 -970.999)" fill="#fff"/>
  <path id="Tracé_2" data-name="Tracé 2" d="M2528.018,1009.84c3.653-1.206,7.534-2.475,11.4-3.78a3.733,3.733,0,0,0,1.485-.849c3.531-3.767,6.972-7.623,10.555-11.338,1.863-1.938,3.966-3.645,5.955-5.465,1.069-.976,2.121-1.975,3.375-3.14,3.871,1.367,3.424,5.455,5.568,8.449-1.046,0-1.5.142-1.664-.019-4.446-4.394-6.684-1.41-8.335,2.918a151.061,151.061,0,0,0-4.71,15.837,4.633,4.633,0,0,0,1.022,3.29c1.382,1.9,3.051,3.575,4.955,5.743l-3.239.811q2.411,6.663,4.813,13.286c-.188.169-.377.334-.565.5a18.66,18.66,0,0,1-2.187-3.224c-1.419-3.423-2.646-6.927-3.923-10.335-3.395.193-6.307.358-9.5.542,1.551-4.5,4.8-.429,6.719-1.928-2.2-4.1-4.258-5.162-10.241-5.2-5.166,8.735,4.078,11.5,7.459,17.188-2.48-.414-4.248-.484-5.587-2.734a29.618,29.618,0,0,0-7.1-7.821v-4.843c-6.4.915-9.312,5.22-11.919,10.109-1.013,1.909-2.843,3.379-4.3,5.053-.415-.372-.83-.745-1.245-1.112,1.052-1.217,2.112-2.428,3.15-3.653a14.747,14.747,0,0,0,1.913-2.418c2.07-3.923,3.338-8.346,7.921-10.5,1.014-.475,1.382-2.343,2.047-3.564-1.244-.589-2.489-1.178-3.819-1.806" transform="translate(-2495.638 -965.627)" fill="#fff"/>
</svg>
