<svg xmlns="http://www.w3.org/2000/svg" width="46.551" height="59.564" viewBox="0 0 46.551 59.564">
  <g id="logo-avatar" transform="translate(-1527 -20173.68)">
    <path id="Tracé_6" data-name="Tracé 6" d="M14.277.306c.058-.173.234-.173.346-.225.115.143.063.371.181.481.146-.11-.121-.258.082-.371A.228.228,0,0,1,15.124.3c0,.289.03.572-.17.772a3.186,3.186,0,0,1,1.157-.06c-.2.17-.607.319-.492.681.1,1,1.668,1.682.945,2.825-.261.146-.2-.17-.349-.28-.055.11-.264.283-.407.082,0-.83-1.019-.706-1.489-1.19l-.874.206a9.173,9.173,0,0,0-1.646,2.4,18.567,18.567,0,0,1-2.1,5.745,3.084,3.084,0,0,1,.3,1.168c-.47.115-.118.742-.519.887.118.484-.637.945-.027,1.371.937,1.083,1.959,2.217,2.9,3.212-.082.256-.261.6-.519.629a1.617,1.617,0,0,0-1.165-.11c-.2.371.47.338.525.684a15.108,15.108,0,0,0,1.033,3.275c.412.481.154,1.253.621,1.709-.113.316.354.313.294.654.113.234.582.429.321.742-.61.234-.728-.654-1.223-.478-.234-.027-.321-.2-.555-.225a2.067,2.067,0,0,0,.288-1c-.9-.536-.267-1.709-.8-2.448-.267-.94-1.344-1.448-1.319-2.5-.148-.179-.382-.376-.585-.2a14.237,14.237,0,0,1-2.962.382c-.44-.2-.989.118-1.423.008-.121-.486.692-.547.6-1.085a.5.5,0,0,1,.519-.121.268.268,0,0,0,.434,0c.264,0,.786-.058.791.371a5.268,5.268,0,0,0,1.627-.181,14.651,14.651,0,0,0-2.388-2.184L6.3,15.525c-.931.038-2.063.324-2.937-.209-.321.313-.228.882-.429,1.25-.582.517-.4,1.349-.426,2a13.96,13.96,0,0,0,2.129,3.245c.931-.206.739,1.168,1.492.992.03.6,1.308.937.706,1.563-.261-.085-.555-.025-.728-.223-.115.058-.264.2-.409.088-.058-.231-.437-.456-.206-.739,0-.088-.091-.168-.176-.258-.082.283-.374.486-.253.8-.236,0-.324-.113-.528-.058.113-.31-.151-.706.08-1-.7.005-.522-.794-.846-1.165-1.044-.849-1.6-2.476-3.033-2.7a1.034,1.034,0,0,1,.137-1.11c-.146-.517,0-1.258-.379-1.654-.734.486-1.657.4-2.352.893a10.252,10.252,0,0,0-3.871,5.465c-.176.261-.64.063-.7.462.088.6-.64.231-.871.574-.258.146-.635.316-.868.146-.036-.423.484-.684.2-1.113a.962.962,0,0,1,.841-.517c.088.115.058.486.319.286.294-.2-.03-.514.113-.742a10.722,10.722,0,0,0,2.514-4.355c-.148-.107-.038-.341-.118-.508a21.077,21.077,0,0,0,2.377-1.214A5.962,5.962,0,0,1-.48,14.107c.052-.4-.179-.659-.1-1.028-1.572-.849-3.1.245-4.589.53-.118.058-.209.176-.349.176v-.113a7.371,7.371,0,0,1-.813.088c.058-.456-.64-.942.082-1.116a1.441,1.441,0,0,1,.547-.86c.121.228.316.033.409-.027l-.055.231c.115.058.343-.091.346.11l-.055.2c.055.055.146.055.234.082-.03.115-.3,0-.379.121l-.2.286c.582.6,1.484-.005,2.212-.124.17-.091.462-.258.6-.033,0-.228.264-.258.464-.261.234.115.5-.258.841-.091A12.981,12.981,0,0,1,1.677,10.87c1.165-.121,2.564-.3,2.959-1.613.146-.2.525-.173.522-.492A3.881,3.881,0,0,1,7.131,7.62,10.245,10.245,0,0,0,8.716,5.043c.934-.632,1.154-1.8,2.028-2.467a9.683,9.683,0,0,1,1.8-1C12.915,1.2,13.558.968,13.549.366c.055-.368.53-.258.64-.541.179.113-.085.341.088.481" transform="translate(1545.992 20184.125)" fill="#2b2e34"/>
    <path id="Tracé_7" data-name="Tracé 7" d="M.386.9a2.6,2.6,0,0,1,.86-.827A3.623,3.623,0,0,1,2.425-.374a6.6,6.6,0,0,1,1.311-.14,9.531,9.531,0,0,1,1.217.08,3.686,3.686,0,0,1,1.127.327,2.19,2.19,0,0,1,.838.681,1.915,1.915,0,0,1,.327,1.159l.022,4.135A7.408,7.408,0,0,0,7.338,6.9a1.87,1.87,0,0,0,.212.736L5.321,7.66a3.444,3.444,0,0,1-.107-.385,3.158,3.158,0,0,1-.052-.4,2.894,2.894,0,0,1-1.225.761,4.95,4.95,0,0,1-1.44.223,4.221,4.221,0,0,1-1.063-.132A2.463,2.463,0,0,1,.57,7.3,2.041,2.041,0,0,1,0,6.569,2.471,2.471,0,0,1-.221,5.512,2.32,2.32,0,0,1,.013,4.393a2.053,2.053,0,0,1,.61-.7,2.84,2.84,0,0,1,.866-.4,7.867,7.867,0,0,1,.973-.212c.332-.055.651-.091.97-.129a5.051,5.051,0,0,0,.849-.143,1.436,1.436,0,0,0,.582-.272.581.581,0,0,0,.192-.508,1.084,1.084,0,0,0-.118-.566.836.836,0,0,0-.308-.319A1.2,1.2,0,0,0,4.181,1,3.357,3.357,0,0,0,3.637.959a1.638,1.638,0,0,0-1.017.28,1.274,1.274,0,0,0-.42.931L.007,2.176A2.514,2.514,0,0,1,.386.9M4.719,3.954c-.137.041-.283.082-.437.115s-.327.06-.506.077-.349.047-.519.077a4.818,4.818,0,0,0-.484.129,1.487,1.487,0,0,0-.418.209.935.935,0,0,0-.275.335,1.043,1.043,0,0,0-.11.506,1,1,0,0,0,.113.492.83.83,0,0,0,.291.316,1.134,1.134,0,0,0,.431.157,2.8,2.8,0,0,0,.508.047,1.907,1.907,0,0,0,.995-.22,1.465,1.465,0,0,0,.519-.519,1.719,1.719,0,0,0,.2-.61,3.615,3.615,0,0,0,.033-.492l0-.813a1.082,1.082,0,0,1-.343.2" transform="translate(1532.19 20225.383)" fill="#2b2e34"/>
    <path id="Tracé_9" data-name="Tracé 9" d="M3.616.005,1.954,5.459H1.926L.223.022-2.069.033.69,7.984l2.434-.011L5.784,0Z" transform="translate(1541.293 20225.035)" fill="#2b2e34"/>
    <path id="Tracé_10" data-name="Tracé 10" d="M.384.9A2.667,2.667,0,0,1,1.239.071,3.652,3.652,0,0,1,2.418-.371,6.824,6.824,0,0,1,3.737-.514a9.235,9.235,0,0,1,1.217.08,3.773,3.773,0,0,1,1.129.327,2.236,2.236,0,0,1,.833.681,1.882,1.882,0,0,1,.327,1.162l.016,4.13A8.371,8.371,0,0,0,7.328,6.9a1.921,1.921,0,0,0,.22.734L5.319,7.66a3.616,3.616,0,0,1-.107-.385,3.093,3.093,0,0,1-.052-.4,2.842,2.842,0,0,1-1.225.758,4.975,4.975,0,0,1-1.445.225,4.093,4.093,0,0,1-1.061-.132A2.479,2.479,0,0,1,.569,7.3a2.045,2.045,0,0,1-.58-.731A2.523,2.523,0,0,1-.22,5.512,2.287,2.287,0,0,1,.014,4.4a1.989,1.989,0,0,1,.61-.706,2.741,2.741,0,0,1,.86-.4,8.02,8.02,0,0,1,.975-.212c.33-.058.648-.1.97-.129a5.5,5.5,0,0,0,.844-.14,1.355,1.355,0,0,0,.582-.275.578.578,0,0,0,.2-.511,1.183,1.183,0,0,0-.121-.558.8.8,0,0,0-.31-.321A1.124,1.124,0,0,0,4.182,1,3.764,3.764,0,0,0,3.64.956a1.653,1.653,0,0,0-1.019.28,1.246,1.246,0,0,0-.426.929l-2.19.014A2.562,2.562,0,0,1,.384.9M4.72,3.954c-.14.044-.286.08-.448.118s-.324.058-.495.074-.354.049-.525.077a4.637,4.637,0,0,0-.484.132,1.349,1.349,0,0,0-.412.206.959.959,0,0,0-.28.338,1.025,1.025,0,0,0-.107.5.983.983,0,0,0,.113.489.756.756,0,0,0,.291.316,1.156,1.156,0,0,0,.431.162,2.76,2.76,0,0,0,.5.044,1.984,1.984,0,0,0,1-.22,1.424,1.424,0,0,0,.511-.522,1.532,1.532,0,0,0,.212-.607c.022-.2.038-.368.038-.492l-.005-.816a1.006,1.006,0,0,1-.343.2" transform="translate(1546.724 20225.314)" fill="#2b2e34"/>
    <path id="Tracé_11" data-name="Tracé 11" d="M3.256,1.51l.008,1.473-1.6.008.016,3.943a1.044,1.044,0,0,0,.192.734,1.062,1.062,0,0,0,.739.184c.124,0,.242-.011.352-.016s.22-.033.324-.047l.005,1.684a4.245,4.245,0,0,1-.615.069c-.223.014-.448.019-.659.019A6.678,6.678,0,0,1,1.055,9.5a2.238,2.238,0,0,1-.811-.267,1.461,1.461,0,0,1-.55-.569,2,2,0,0,1-.2-.97L-.53,3l-1.319.008-.014-1.47,1.327-.008L-.547-.85,1.646-.864l.008,2.382Z" transform="translate(1555.618 20223.467)" fill="#2b2e34"/>
    <path id="Tracé_12" data-name="Tracé 12" d="M.384.895A2.641,2.641,0,0,1,1.242.071a3.548,3.548,0,0,1,1.176-.44A6.091,6.091,0,0,1,3.734-.512a9.729,9.729,0,0,1,1.22.077A3.655,3.655,0,0,1,6.08-.108a2.2,2.2,0,0,1,.835.681,1.907,1.907,0,0,1,.33,1.162l.019,4.132A7.9,7.9,0,0,0,7.33,6.9a2,2,0,0,0,.214.736l-2.231.019c-.041-.118-.074-.253-.1-.379a3.274,3.274,0,0,1-.055-.4,2.792,2.792,0,0,1-1.22.758,4.908,4.908,0,0,1-1.443.225,4.311,4.311,0,0,1-1.061-.132A2.39,2.39,0,0,1,.566,7.3a2.132,2.132,0,0,1-.58-.731A2.562,2.562,0,0,1-.22,5.508,2.35,2.35,0,0,1,.011,4.393a1.96,1.96,0,0,1,.613-.7,2.855,2.855,0,0,1,.863-.4,9.151,9.151,0,0,1,.973-.209c.321-.058.648-.1.97-.129a5.666,5.666,0,0,0,.841-.143,1.438,1.438,0,0,0,.582-.272.564.564,0,0,0,.2-.511,1.232,1.232,0,0,0-.11-.566.908.908,0,0,0-.31-.319A1.268,1.268,0,0,0,4.184,1,3.878,3.878,0,0,0,3.632.955a1.658,1.658,0,0,0-1.014.283,1.251,1.251,0,0,0-.426.929L.008,2.178A2.517,2.517,0,0,1,.384.895M4.717,3.953c-.137.041-.288.082-.445.115s-.324.06-.495.077-.349.047-.53.08a4.342,4.342,0,0,0-.475.126,1.3,1.3,0,0,0-.412.212.9.9,0,0,0-.283.332,1.011,1.011,0,0,0-.1.508.979.979,0,0,0,.11.486.792.792,0,0,0,.289.319,1.163,1.163,0,0,0,.437.159,2.688,2.688,0,0,0,.5.044,1.893,1.893,0,0,0,.995-.22,1.407,1.407,0,0,0,.519-.522,1.52,1.52,0,0,0,.206-.607,4.269,4.269,0,0,0,.036-.492l0-.816a.905.905,0,0,1-.343.2" transform="translate(1558.672 20225.262)" fill="#2b2e34"/>
    <path id="Tracé_13" data-name="Tracé 13" d="M1.325.145,1.33,1.621h.03A2.893,2.893,0,0,1,1.778.936a2.615,2.615,0,0,1,.6-.544A2.656,2.656,0,0,1,3.1.046a2.513,2.513,0,0,1,.8-.129,1.883,1.883,0,0,1,.475.071l.014,2.033c-.1-.016-.231-.033-.379-.052s-.28-.016-.412-.016a2.366,2.366,0,0,0-1.014.2,1.721,1.721,0,0,0-.659.555,2.119,2.119,0,0,0-.365.811,4.62,4.62,0,0,0-.1,1L1.47,8.108l-2.193.008L-.758.159Z" transform="translate(1567.211 20224.789)" fill="#2b2e34"/>
    <path id="Tracé_14" data-name="Tracé 14" d="M14.806,29.608a23.131,23.131,0,0,1-16.381-6.74A23.141,23.141,0,0,1-8.472,6.44,23.135,23.135,0,0,1-1.726-10.051,23.273,23.273,0,0,1,31.185-10.2,23.125,23.125,0,0,1,38.078,6.221v0a23.144,23.144,0,0,1-6.74,16.491,23.112,23.112,0,0,1-16.42,6.894h-.113m.005-42.017h-.091A18.609,18.609,0,0,0,1.494-6.858,18.639,18.639,0,0,0-3.938,6.418,18.621,18.621,0,0,0,1.617,19.646a18.617,18.617,0,0,0,13.189,5.429H14.9a18.6,18.6,0,0,0,13.219-5.553A18.62,18.62,0,0,0,33.545,6.243a18.625,18.625,0,0,0-5.55-13.224,18.618,18.618,0,0,0-13.183-5.427" transform="translate(1535.472 20190.621)" fill="#2b2e34"/>
  </g>
</svg>
