<svg xmlns="http://www.w3.org/2000/svg" width="112.68" height="46.637" viewBox="0 0 112.68 46.637">
  <g id="logo-calq" transform="translate(-1623.608 -20180.145)">
    <path id="Tracé_15" data-name="Tracé 15" d="M1.854,0V2.138H1.841A1.334,1.334,0,0,0,.662,1.574,1.747,1.747,0,0,0-1.061,3.451,1.656,1.656,0,0,0,.579,5.2,1.423,1.423,0,0,0,1.9,4.462h.014l.03.651h.588c-.019-.25-.027-.58-.027-.912V0Zm0,3.588a1.136,1.136,0,0,1-.033.28,1.084,1.084,0,0,1-1.05.811A1.161,1.161,0,0,1-.4,3.4,1.2,1.2,0,0,1,.78,2.074a1.048,1.048,0,0,1,1.041.739,1.243,1.243,0,0,1,.033.283ZM6.8,1.66H6.152V3.72a.9.9,0,0,1-.066.327,1.045,1.045,0,0,1-.945.615c-.629,0-.874-.464-.874-1.159V1.66H3.615V3.624C3.615,4.951,4.4,5.2,4.923,5.2A1.425,1.425,0,0,0,6.2,4.481h.016l.033.632h.58c-.019-.278-.027-.591-.027-.945Zm7.454,3.635c-.453-.063-1.041-.184-1.569-.3V4.97a2.3,2.3,0,0,0,1.555-2.322A2.342,2.342,0,0,0,11.8.214,2.433,2.433,0,0,0,9.292,2.772,2.358,2.358,0,0,0,11.663,5.2a1.328,1.328,0,0,1,.33.069c.659.212,1.344.4,2.088.569Zm-2.506-.61A1.8,1.8,0,0,1,9.976,2.753,1.836,1.836,0,0,1,11.79.728a1.816,1.816,0,0,1,1.769,1.956,1.817,1.817,0,0,1-1.8,2Zm6.5-3.025H17.6V3.72a.844.844,0,0,1-.066.327,1.041,1.041,0,0,1-.942.615c-.629,0-.874-.464-.874-1.159V1.66h-.651V3.624c0,1.327.786,1.574,1.305,1.574a1.421,1.421,0,0,0,1.278-.717h.019l.033.632h.58c-.019-.278-.03-.591-.03-.945ZM21.162.181l-.654,1.044h.473L21.893.181Zm1.261,3.341a1.352,1.352,0,0,0,.025-.3,1.538,1.538,0,0,0-1.563-1.66A1.76,1.76,0,0,0,19.1,3.446a1.694,1.694,0,0,0,1.849,1.747,3.156,3.156,0,0,0,1.28-.239l-.115-.462a2.717,2.717,0,0,1-1.085.192,1.178,1.178,0,0,1-1.305-1.17Zm-2.687-.475a1.112,1.112,0,0,1,1.1-1.022.947.947,0,0,1,.984,1.022ZM23.3,4.2c0,.332-.008.662-.027.912h.566l.03-.607h.014A1.427,1.427,0,0,0,25.2,5.2a1.732,1.732,0,0,0,1.723-1.863,1.631,1.631,0,0,0-1.629-1.761,1.459,1.459,0,0,0-1.327.69h-.014V0H23.3Zm.651-1.03a.941.941,0,0,1,.041-.269,1.124,1.124,0,0,1,1.1-.824,1.177,1.177,0,0,1,1.17,1.283,1.178,1.178,0,0,1-1.2,1.324,1.113,1.113,0,0,1-1.085-.778,1.129,1.129,0,0,1-.027-.234Zm6.866.352a1.352,1.352,0,0,0,.025-.3,1.54,1.54,0,0,0-1.566-1.66,1.76,1.76,0,0,0-1.78,1.879,1.694,1.694,0,0,0,1.849,1.747,3.145,3.145,0,0,0,1.28-.239l-.115-.462a2.707,2.707,0,0,1-1.085.192,1.174,1.174,0,0,1-1.3-1.17Zm-2.687-.475a1.109,1.109,0,0,1,1.1-1.022.947.947,0,0,1,.984,1.022Zm6.166,1.44a2.149,2.149,0,0,1-.893.192,1.256,1.256,0,0,1-1.335-1.294,1.255,1.255,0,0,1,1.36-1.3,1.71,1.71,0,0,1,.846.192l.151-.495a2.317,2.317,0,0,0-1-.209A1.844,1.844,0,0,0,31.4,3.429,1.737,1.737,0,0,0,33.279,5.2a2.824,2.824,0,0,0,1.129-.223Z" transform="translate(1696.516 20214.781)" fill="#2b2e34"/>
    <path id="Tracé_16" data-name="Tracé 16" d="M2.111,2.24a1.352,1.352,0,0,0,.025-.3A1.54,1.54,0,0,0,.57.284,1.758,1.758,0,0,0-1.208,2.164,1.694,1.694,0,0,0,.638,3.911a3.161,3.161,0,0,0,1.283-.239L1.806,3.21a2.71,2.71,0,0,1-1.085.2A1.18,1.18,0,0,1-.584,2.232ZM-.576,1.765A1.111,1.111,0,0,1,.52.743a.949.949,0,0,1,.986,1.022Zm3.7-2.044V.378H2.556v.5h.572V2.721a1.358,1.358,0,0,0,.256.912.952.952,0,0,0,.725.283,1.756,1.756,0,0,0,.613-.1l-.03-.495a1.282,1.282,0,0,1-.412.052c-.4,0-.514-.283-.514-.706V.875h.984v-.5H3.765V-.455Zm6.685-1V.856H9.8A1.34,1.34,0,0,0,8.62.292,1.746,1.746,0,0,0,6.9,2.169a1.656,1.656,0,0,0,1.64,1.747A1.418,1.418,0,0,0,9.859,3.18h.014l.03.651h.588c-.019-.25-.027-.58-.027-.912v-4.2Zm0,3.588a1.051,1.051,0,0,1-.036.283A1.079,1.079,0,0,1,8.73,3.4,1.161,1.161,0,0,1,7.557,2.122,1.2,1.2,0,0,1,8.738.792a1.048,1.048,0,0,1,1.041.739,1.243,1.243,0,0,1,.033.283Zm4.822-.066a1.352,1.352,0,0,0,.025-.3A1.54,1.54,0,0,0,13.093.284a1.758,1.758,0,0,0-1.778,1.879,1.692,1.692,0,0,0,1.846,1.747,3.172,3.172,0,0,0,1.283-.239l-.118-.462a2.689,2.689,0,0,1-1.085.2,1.176,1.176,0,0,1-1.3-1.173Zm-2.687-.475a1.109,1.109,0,0,1,1.1-1.022.947.947,0,0,1,.984,1.022Zm3.314,1.9a2.282,2.282,0,0,0,1.069.253c.9,0,1.374-.459,1.374-1.044,0-.528-.308-.822-.97-1.033C16.245,1.683,16,1.556,16,1.254c0-.275.217-.486.613-.486a1.54,1.54,0,0,1,.791.22l.159-.47a1.826,1.826,0,0,0-.923-.225c-.811,0-1.272.478-1.272,1.03,0,.42.308.775.989.978.5.154.709.3.709.618,0,.283-.217.519-.725.519a1.907,1.907,0,0,1-.923-.269Zm4.981.168h.651V-1.282h-.651ZM25.065,2.24a1.352,1.352,0,0,0,.025-.3A1.54,1.54,0,0,0,23.523.284a1.758,1.758,0,0,0-1.778,1.879,1.694,1.694,0,0,0,1.846,1.747,3.172,3.172,0,0,0,1.283-.239l-.118-.462a2.684,2.684,0,0,1-1.083.2,1.18,1.18,0,0,1-1.305-1.173Zm-2.687-.475a1.111,1.111,0,0,1,1.1-1.022.951.951,0,0,1,.986,1.022Zm3.7-2.044V.378H25.51v.5h.572V2.721a1.358,1.358,0,0,0,.256.912.952.952,0,0,0,.725.283,1.756,1.756,0,0,0,.613-.1l-.03-.495a1.282,1.282,0,0,1-.412.052c-.4,0-.514-.283-.514-.706V.875H27.7v-.5h-.984V-.455Zm2.547,0V.378h-.572v.5h.572V2.721a1.343,1.343,0,0,0,.258.912.941.941,0,0,0,.723.283,1.744,1.744,0,0,0,.613-.1l-.03-.495a1.282,1.282,0,0,1-.412.052c-.4,0-.514-.283-.514-.706V.875h.984v-.5h-.984V-.455Zm2.407,4.11h.648V2.01a1.575,1.575,0,0,1,.027-.286.924.924,0,0,1,.9-.833,1.213,1.213,0,0,1,.256.022v-.6a.745.745,0,0,0-.2-.022,1.119,1.119,0,0,0-1.041.811h-.022L31.582.378h-.569c.022.341.027.692.027,1.138Zm5.52-1.591a1.548,1.548,0,0,0,.025-.3A1.54,1.54,0,0,0,35.014.284a1.758,1.758,0,0,0-1.778,1.879,1.692,1.692,0,0,0,1.846,1.747,3.145,3.145,0,0,0,1.28-.239l-.115-.462a2.7,2.7,0,0,1-1.085.2,1.176,1.176,0,0,1-1.3-1.173Zm-2.687-.475a1.109,1.109,0,0,1,1.1-1.022.947.947,0,0,1,.984,1.022Zm3.314,1.9a2.278,2.278,0,0,0,1.066.253c.9,0,1.377-.459,1.377-1.044,0-.528-.31-.822-.97-1.033-.489-.157-.731-.283-.731-.585,0-.275.217-.486.613-.486a1.54,1.54,0,0,1,.791.22l.159-.47a1.826,1.826,0,0,0-.923-.225c-.811,0-1.275.478-1.275,1.03,0,.42.31.775.992.978.5.154.709.3.709.618,0,.283-.217.519-.725.519a1.907,1.907,0,0,1-.923-.269Z" transform="translate(1696.664 20208.494)" fill="#2b2e34"/>
    <path id="Tracé_17" data-name="Tracé 17" d="M1.854,0V2.138H1.841A1.334,1.334,0,0,0,.662,1.574,1.747,1.747,0,0,0-1.061,3.451,1.656,1.656,0,0,0,.579,5.2,1.423,1.423,0,0,0,1.9,4.462h.014l.03.651h.588c-.019-.25-.027-.58-.027-.912V0Zm0,3.588a1.136,1.136,0,0,1-.033.28,1.084,1.084,0,0,1-1.05.811A1.161,1.161,0,0,1-.4,3.4,1.2,1.2,0,0,1,.78,2.074a1.048,1.048,0,0,1,1.041.739,1.243,1.243,0,0,1,.033.283Zm4.822-.066a1.369,1.369,0,0,0,.025-.3,1.54,1.54,0,0,0-1.566-1.66A1.758,1.758,0,0,0,3.357,3.446,1.694,1.694,0,0,0,5.2,5.193a3.172,3.172,0,0,0,1.283-.239l-.118-.462a2.692,2.692,0,0,1-1.083.192,1.178,1.178,0,0,1-1.305-1.17ZM3.989,3.047a1.107,1.107,0,0,1,1.1-1.022.951.951,0,0,1,.986,1.022Zm3.316,1.9A2.262,2.262,0,0,0,8.372,5.2c.9,0,1.374-.459,1.374-1.044,0-.528-.308-.824-.97-1.033-.489-.157-.731-.283-.731-.585,0-.275.217-.486.615-.486a1.537,1.537,0,0,1,.789.22L9.611,1.8a1.864,1.864,0,0,0-.923-.223c-.813,0-1.275.475-1.275,1.03,0,.42.308.775.989.978.5.151.709.3.709.618,0,.28-.217.519-.725.519a1.916,1.916,0,0,1-.923-.269Zm7.611-1.9a1.3,1.3,0,0,0-1.423-1.475,2.4,2.4,0,0,0-1.25.327l.151.429A1.9,1.9,0,0,1,13.4,2.047a.755.755,0,0,1,.866.8V2.91c-1.519-.016-2.278.47-2.278,1.3a1.03,1.03,0,0,0,1.135.992A1.484,1.484,0,0,0,14.3,4.654h.016l.063.459h.588a5.559,5.559,0,0,1-.055-.841Zm-.637.876a.6.6,0,0,1-.033.2,1,1,0,0,1-.953.6.581.581,0,0,1-.64-.6c0-.64.816-.786,1.627-.767Zm1.734,1.187h.651V3.292a1.559,1.559,0,0,1,.025-.286.924.924,0,0,1,.9-.833,1.2,1.2,0,0,1,.253.022V1.6a.719.719,0,0,0-.2-.022,1.123,1.123,0,0,0-1.041.808h-.022l-.022-.723h-.572c.022.341.027.69.027,1.138ZM18.851,1V1.66H18.28v.495h.572V4a1.363,1.363,0,0,0,.258.912.941.941,0,0,0,.723.283,1.744,1.744,0,0,0,.613-.1l-.03-.495A1.282,1.282,0,0,1,20,4.66c-.4,0-.514-.283-.514-.709v-1.8h.984V1.66h-.984V.824Zm2.16,3.943a2.27,2.27,0,0,0,1.066.253c.9,0,1.377-.459,1.377-1.044,0-.528-.31-.824-.97-1.033-.489-.157-.731-.283-.731-.585,0-.275.217-.486.613-.486a1.558,1.558,0,0,1,.791.22l.159-.473a1.857,1.857,0,0,0-.923-.223c-.811,0-1.275.475-1.275,1.03,0,.42.31.775.992.978.5.151.709.3.709.618,0,.28-.217.519-.725.519a1.907,1.907,0,0,1-.923-.269Z" transform="translate(1696.516 20199.645)" fill="#2b2e34"/>
    <path id="Tracé_18" data-name="Tracé 18" d="M2.517,2.817a2.956,2.956,0,0,1-1.192.228A1.875,1.875,0,0,1-.756,1.125,1.921,1.921,0,0,1,1.374-.867,2.734,2.734,0,0,1,2.5-.637l.165-.519A3.088,3.088,0,0,0,1.343-1.4,2.557,2.557,0,0,0-1.44,1.133,2.4,2.4,0,0,0,1.187,3.587a3.57,3.57,0,0,0,1.467-.264Zm2.44.769a1.805,1.805,0,0,0,1.9-1.855A1.733,1.733,0,0,0,5.011-.038a1.8,1.8,0,0,0-1.9,1.846A1.748,1.748,0,0,0,4.948,3.587Zm.005-.481A1.216,1.216,0,0,1,3.769,1.784a1.212,1.212,0,1,1,2.412-.025A1.228,1.228,0,0,1,4.967,3.106Zm2.745.4h.651V1.452a.9.9,0,0,1,.049-.286A1.033,1.033,0,0,1,9.364.493c.648,0,.9.489.9,1.1V3.5h.651V1.529c0-1.3-.871-1.566-1.344-1.566a1.417,1.417,0,0,0-1.261.7H8.3L8.259.048h-.58c.019.289.027.6.027.945Zm4.077-.168a2.27,2.27,0,0,0,1.066.253c.9,0,1.377-.462,1.377-1.044,0-.528-.31-.824-.97-1.033-.492-.157-.734-.283-.734-.588,0-.272.22-.484.615-.484a1.558,1.558,0,0,1,.791.22L14.09.185a1.856,1.856,0,0,0-.923-.223c-.811,0-1.275.475-1.275,1.03,0,.42.31.775.992.978.5.151.706.3.706.618,0,.28-.214.519-.723.519a1.907,1.907,0,0,1-.923-.269ZM18.151,1.91a1.369,1.369,0,0,0,.025-.3,1.54,1.54,0,0,0-1.566-1.66,1.758,1.758,0,0,0-1.778,1.879,1.692,1.692,0,0,0,1.846,1.747,3.145,3.145,0,0,0,1.28-.239l-.115-.462a2.707,2.707,0,0,1-1.085.192,1.175,1.175,0,0,1-1.3-1.17Zm-2.687-.475A1.107,1.107,0,0,1,16.56.413a.947.947,0,0,1,.984,1.022ZM19.675.048h-.651V3.5h.651Zm0,3.454M19.349-.6a.406.406,0,0,0,.423-.412.407.407,0,0,0-.42-.412.412.412,0,0,0-.423.412A.4.4,0,0,0,19.34-.6ZM20.81,3.5h.651V-1.612H20.81Z" transform="translate(1696.882 20193.689)" fill="#2b2e34"/>
    <path id="Tracé_19" data-name="Tracé 19" d="M1.936,0C0,0-1.113,1.882-1.108,4.231-1.116,6.611.024,8.416,1.912,8.416h.019c1.9,0,3.006-1.791,3.006-4.237C4.937,1.893,3.868,0,1.936,0" transform="translate(1669.886 20194.201)" fill="#2b2e34"/>
    <path id="Tracé_20" data-name="Tracé 20" d="M.865,0H.827C.643.736.453,1.684.252,2.412L-.5,5.067H2.272l-.778-2.66C1.28,1.668,1.057.731.865,0" transform="translate(1649.248 20194.279)" fill="#2b2e34"/>
    <path id="Tracé_21" data-name="Tracé 21" d="M30.328.016-4.2-.009l-13.15,7.6L5.182,46.626l38.972-22.5ZM-.426,22.351a6.827,6.827,0,0,0,2.366-.4l.42,2.217a8.16,8.16,0,0,1-3.2.539c-4.33,0-6.564-2.7-6.564-6.27,0-4.264,3.055-6.622,6.831-6.622a7.232,7.232,0,0,1,3.08.552L1.934,14.6a5.915,5.915,0,0,0-2.377-.47,3.764,3.764,0,0,0-3.979,4.138,3.727,3.727,0,0,0,4,4.083m12.364,2.157L10.977,21.3H7.383L6.5,24.508H3.577L7.391,12h3.7l3.893,12.5Zm12.705,0h-7.8V12h2.827V22.14h4.976Zm6.512.4a2.8,2.8,0,0,0-.863-.192c-2.827-.181-5.465-2.264-5.465-6.347,0-3.756,2.371-6.567,6.116-6.567,3.816,0,5.9,2.9,5.9,6.309,0,2.841-1.308,4.844-2.956,5.578v.077c.956.283,2.033.511,3.014.709L36.1,26.657a45.6,45.6,0,0,1-4.946-1.75" transform="translate(1640.962 20180.154)" fill="#2b2e34"/>
  </g>
</svg>
